<svg width="18" height="18" viewBox="0 0 18 18" fill="none" xmlns="http://www.w3.org/2000/svg">
<mask id="path-1-inside-1_10780_184" fill="white">
<path fill-rule="evenodd" clip-rule="evenodd" d="M2 0C0.895431 0 0 0.89543 0 2V16C0 17.1046 0.89543 18 2 18H16C17.1046 18 18 17.1046 18 16V2C18 0.895431 17.1046 0 16 0H2ZM14.6823 6.73106C15.0861 6.35422 15.1079 5.72143 14.7311 5.31768C14.3542 4.91393 13.7214 4.89211 13.3177 5.26894L7.61283 10.5935L4.72414 7.56034C4.34325 7.16041 3.71028 7.14498 3.31034 7.52586C2.91041 7.90675 2.89498 8.53972 3.27586 8.93966L6.84729 12.6897C7.22546 13.0867 7.85287 13.1052 8.25375 12.7311L14.6823 6.73106Z"/>
</mask>
<path fill-rule="evenodd" clip-rule="evenodd" d="M2 0C0.895431 0 0 0.89543 0 2V16C0 17.1046 0.89543 18 2 18H16C17.1046 18 18 17.1046 18 16V2C18 0.895431 17.1046 0 16 0H2ZM14.6823 6.73106C15.0861 6.35422 15.1079 5.72143 14.7311 5.31768C14.3542 4.91393 13.7214 4.89211 13.3177 5.26894L7.61283 10.5935L4.72414 7.56034C4.34325 7.16041 3.71028 7.14498 3.31034 7.52586C2.91041 7.90675 2.89498 8.53972 3.27586 8.93966L6.84729 12.6897C7.22546 13.0867 7.85287 13.1052 8.25375 12.7311L14.6823 6.73106Z" fill="#F2F2F2"/>
<path d="M14.6823 6.73106L16.047 8.19317L14.6823 6.73106ZM13.3177 5.26894L14.6823 6.73106V6.73105L13.3177 5.26894ZM7.61283 10.5935L6.16456 11.9728L7.53003 13.4065L8.97747 12.0556L7.61283 10.5935ZM4.72414 7.56034L6.17241 6.18103L6.17241 6.18103L4.72414 7.56034ZM3.31034 7.52586L1.93103 6.07759L1.93103 6.07759L3.31034 7.52586ZM3.27586 8.93966L1.82759 10.319L1.82759 10.319L3.27586 8.93966ZM6.84729 12.6897L5.39901 14.069H5.39902L6.84729 12.6897ZM8.25375 12.7311L6.88911 11.2689H6.88911L8.25375 12.7311ZM2 2V2V-2C-0.209139 -2 -2 -0.209139 -2 2H2ZM2 16V2H-2V16H2ZM2 16H2H-2C-2 18.2091 -0.209139 20 2 20V16ZM16 16H2V20H16V16ZM16 16V20C18.2091 20 20 18.2091 20 16H16ZM16 2V16H20V2H16ZM16 2H20C20 -0.209138 18.2091 -2 16 -2V2ZM2 2H16V-2H2V2ZM13.2689 6.68232C12.8921 6.27857 12.9139 5.64578 13.3177 5.26895L16.047 8.19317C17.2582 7.06266 17.3237 5.1643 16.1932 3.95305L13.2689 6.68232ZM14.6823 6.73105C14.2786 7.10789 13.6458 7.08607 13.2689 6.68232L16.1932 3.95305C15.0627 2.74179 13.1643 2.67633 11.953 3.80683L14.6823 6.73105ZM8.97747 12.0556L14.6823 6.73106L11.953 3.80683L6.24819 9.13136L8.97747 12.0556ZM3.27586 8.93966L6.16456 11.9728L9.06111 9.21416L6.17241 6.18103L3.27586 8.93966ZM4.68965 8.97414C4.28972 9.35502 3.65675 9.33959 3.27586 8.93966L6.17241 6.18103C5.02976 4.98124 3.13083 4.93493 1.93103 6.07759L4.68965 8.97414ZM4.72414 7.56035C5.10502 7.96027 5.08959 8.59325 4.68966 8.97414L1.93103 6.07759C0.731243 7.22025 0.684929 9.11917 1.82759 10.319L4.72414 7.56035ZM8.29557 11.3103L4.72414 7.56034L1.82759 10.319L5.39901 14.069L8.29557 11.3103ZM6.88911 11.2689C7.28999 10.8948 7.91739 10.9133 8.29557 11.3103L5.39902 14.069C6.53353 15.2602 8.41576 15.3156 9.61838 14.1932L6.88911 11.2689ZM13.3177 5.26894L6.88911 11.2689L9.61838 14.1932L16.047 8.19317L13.3177 5.26894Z" fill="#F2F2F2" mask="url(#path-1-inside-1_10780_184)"/>
</svg>
